<svg xmlns="http://www.w3.org/2000/svg" viewBox="0 0 120 120"><defs><style>.a{fill:#868a8e;}.b{fill:#fff;}</style></defs><title>icon-instagram</title><circle class="a" cx="60" cy="60" r="60"/><path class="b" d="M463.83,118.72A15.28,15.28,0,0,1,448.56,134H414.44a15.28,15.28,0,0,1-15.28-15.28V84.61a15.28,15.28,0,0,1,15.28-15.28h34.11a15.28,15.28,0,0,1,15.28,15.28v34.12Z" transform="translate(-369.33 -41.67)"/><path class="a" d="M456.33,114.77A11.73,11.73,0,0,1,444.6,126.5H418.4a11.73,11.73,0,0,1-11.73-11.73V88.57A11.73,11.73,0,0,1,418.4,76.83h26.2a11.73,11.73,0,0,1,11.73,11.73v26.2h0Z" transform="translate(-369.33 -41.67)"/><rect class="b" x="36.83" y="47.83" width="50.17" height="7.5"/><circle class="b" cx="62.17" cy="62.83" r="16.67"/><circle class="a" cx="61.92" cy="62.83" r="6"/><path class="b" d="M441.5,80.32s1.17-.33,3.5-1.17c0,0,8.83-2.86,6.17,8.66H441.5V80.32Z" transform="translate(-369.33 -41.67)"/></svg>