<svg xmlns="http://www.w3.org/2000/svg" viewBox="0 0 120 120"><defs><style>.a{fill:#868a8e;}.b{fill:#fff;}</style></defs><title>icon-twitter</title><circle class="a" cx="60" cy="60" r="60"/><path class="b" d="M288.07,82.58l3.67-5s1.17-1.83-1.83-2l-7.33,2.67s-8.83-10.17-23-.83c0,0-5.17,2.33-5.17,13.5,0,0-13,1.5-28.17-14.5,0,0-9.5,6.17,0,19.33,0,0-4.61-2.17-4.22,1.83,0,0-.78,8.33,8.06,12.5,0,0-4.67.5-1.67,3.67,0,0,2.67,6,11.17,8.33,0,0-10,6.83-18.5,5.17,0,0-2,1.17,0,2.83,0,0,54.67,28.33,67.17-40.5l5.33-7.17S295.57,80.42,288.07,82.58Z" transform="translate(-196 -41.67)"/></svg>